<svg height="496pt" viewBox="0 0 496 496" width="496pt" xmlns="http://www.w3.org/2000/svg"><path d="m352 464v24h-208v-24l80-24v16h48v-16zm0 0" fill="#d3a06c"/><path d="m272 440v16h-48v-80h48zm0 0" fill="#dfb28b"/><path d="m472 120v256h-448v-256h336v96l32 64 32-64v-96zm0 0" fill="#e6e9ed"/><path d="m168 200h64l24 48-24 48h-64l-24-48zm0 0" fill="#b4dd7f"/><path d="m144 344h-64l-24-48 24-48h64l24 48zm0 0" fill="#fcd770"/><path d="m144 152 24 48-24 48h-64l-24-48 24-48zm0 0" fill="#ffeaa7"/><path d="m488 96v16c0 4.398438-3.601562 8-8 8h-56v-32h56c4.398438 0 8 3.601562 8 8zm0 0" fill="#ccd1d9"/><path d="m360 88v32h-344c-4.398438 0-8-3.601562-8-8v-16c0-4.398438 3.601562-8 8-8zm0 0" fill="#ccd1d9"/><path d="m424 40v32h-64v-32c0-17.679688 14.320312-32 32-32 8.800781 0 16.800781 3.601562 22.640625 9.359375 5.757813 5.839844 9.359375 13.839844 9.359375 22.640625zm0 0" fill="#aab2bd"/><path d="m424 88v128h-64v-144h64zm0 0" fill="#ffeaa7"/><path d="m424 216-32 64-32-64zm0 0" fill="#969faa"/><path d="m480 80h-48v-40c0-22.054688-17.945312-40-40-40s-40 17.945312-40 40v40h-336c-8.824219 0-16 7.175781-16 16v16c0 8.824219 7.175781 16 16 16v256h200v50.046875l-80 24v37.953125h224v-37.953125l-80-24v-50.046875h200v-256c8.824219 0 16-7.175781 16-16v-16c0-8.824219-7.175781-16-16-16zm-68.945312 144-19.054688 38.113281-19.054688-38.113281zm-19.054688-208c13.230469 0 24 10.769531 24 24v24h-48v-24c0-13.230469 10.769531-24 24-24zm-376 80h352v-16h16v96h16v-96h16v128h-16v-16h-16v16h-16v-96h-352zm328 373.953125v10.046875h-192v-10.046875l64-19.199219v13.246094h64v-13.246094zm-80-21.953125h-32v-64h32zm200-80h-432v-240h320v89.886719l40 80 40-80v-89.886719h32zm16-256h-48v-16h48zm0 0"/><path d="m264.945312 248-28-56h-64l-24-48h-73.890624l-28 56 24 48-24 48 28 56h73.890624l24-48h64zm-180-88h54.109376l20 40-20 40h-54.109376l-20-40zm54.109376 176h-54.109376l-20-40 20-40h54.109376l20 40zm33.890624-48-20-40 20-40h54.109376l20 40-20 40zm0 0"/><path d="m432 304h-16v32h-16v-16h-16v16h-16v-40h-16v40h-16v-56h-16v56h-19.71875l-29.625-44.441406-13.3125 8.882812 34.375 51.558594h156.28125v-16h-16zm0 0"/><path d="m234.664062 160h101.335938v-16h-106.664062l-34.136719 25.601562 9.601562 12.796876zm0 0"/><path d="m96 176h32v16h-32zm0 0"/><path d="m168.835938 252.421875 16-31.996094 14.308593 7.15625-16 31.996094zm0 0"/><path d="m112.835938 316.421875 15.996093-32 14.3125 7.15625-16 31.996094zm0 0"/></svg>